
<global>
amp_veltrack=0
ampeg_release=0
xf_cccurve=gain
xfin_hicc1=127
xfout_hicc1=127
xfout_locc1=127
</global>

<group>
group_label=PP
lpc_hicc1=42
lpc_locc1=0

<region>
hikey=a3
hivel=127
lokey=g#3
loop_end=270901
loop_mode=loop_continuous
loop_start=86554
loop_xfade=28481
lovel=0
lpc=6Ag6QajH5cGzietBjJFjwdv7/j/rbk+/MDMnQLU2nb84vja9MZF6v5pca7yaMCBAR5lVwNSpcT+mmiJAJvqNwOGJhUBs4vy/jFHbvTuqzT5Ovt8+TEWEv+RRwT+El/++
lpc_rms=-46.41
offset=11252
pitch_keycenter=a3
sample=Violin1Solo_nonvib_PP_A3.opus
</region>

<region>
hikey=a4
hivel=127
lokey=g#4
loop_end=271884
loop_mode=loop_continuous
loop_start=82296
loop_xfade=27080
lovel=0
lpc=a3osQUSG0MFzGddB7FOBwT45C0FxCu/ARPCnQCa5lr8tq1+/hBOHP7k3zb89/BRA9E83wL5mnj9XiR1Aq6R1wKmuPUACDtW/20lrP+3hbD8ZDS/AJqn4P+hWj741Mrg8
lpc_rms=-45.16
pitch_keycenter=a4
sample=Violin1Solo_nonvib_PP_A4.opus
</region>

<region>
hikey=a5
hivel=127
lokey=g#5
loop_end=263652
loop_mode=loop_continuous
loop_start=93300
loop_xfade=30701
lovel=0
lpc=5orqQC6nYsGP0WpBFhscwfCv80ADBO7A9rzTQJq8dcByb/g/W05dPygGYsDAIL1AwkSEwNEA7D87FWw8HC1/P+XZNb25sjzAAq7WQOxR2cDoR7BAIwaXwNG+kEB9Bc+/
lpc_rms=-45.41
pitch_keycenter=a5
sample=Violin1Solo_nonvib_PP_A5.opus
</region>

<region>
hikey=a6
hivel=127
lokey=g#6
loop_end=263831
loop_mode=loop_continuous
loop_start=96507
loop_xfade=31757
lovel=0
lpc=VmxGQYkjeMH/HKxAnk3cPyylgsCeyXhAtKIQwHWUCj7mo3E/lrLZvuWm4j9QjuK/9hFqQL0VBcG7g9S/xx9HQYvVGMHyXZFAKzy3vhWwyr8L3ChApNi5v4wUOz9F7nO/
lpc_rms=-45.79
pitch_keycenter=a6
sample=Violin1Solo_nonvib_PP_A6.opus
</region>

<region>
hikey=b3
hivel=127
lokey=a#3
loop_end=256335
loop_mode=loop_continuous
loop_start=80785
loop_xfade=26583
lovel=0
lpc=zS//QfJ7qMKuJLRCaeM3wpg/ukAcWug/bazDQNtgBMG5UHpAMlWAv8qBLcDUV7NAwxmPwHdgIT90IKJAZe0gwXf0TkE7iQzB11AuQHs1Z0ARoInAgQm8wKfdNkEyY6LA
lpc_rms=-38.03
pitch_keycenter=b3
sample=Violin1Solo_nonvib_PP_B3.opus
</region>

<region>
hikey=b4
hivel=127
lokey=a#4
loop_end=271145
loop_mode=loop_continuous
loop_start=80271
loop_xfade=26414
lovel=0
lpc=OvfbQUkkdsJPx3FCOUcGwoTvgkGqgp/BdaXRQZKLpMFwTVxBRPDpwEl4ur9FCJxAVAagwC/sSD8rZ9NAM08CwZdwFEDyQKJAIieZwBJj4r4EbjVAgsJwv/amur1OPfE/
lpc_rms=-35.27
pitch_keycenter=b4
sample=Violin1Solo_nonvib_PP_B4.opus
</region>

<region>
hikey=b5
hivel=127
lokey=a#5
loop_end=277440
loop_mode=loop_continuous
loop_start=82746
loop_xfade=27228
lovel=0
lpc=uttKQYHwjcHjiGFBilrbwBGoQEDXUoLAl3PDQFb7iMB8lAi/kp6cQFtLmcCfKK8/iIsPQOJ1JcASgy8+8v9CQFiUfcAUd9U/fMoqQJiDrsDF4JNAFEPEv/pIuT+V0ZvA
lpc_rms=-42.84
pitch_keycenter=b5
sample=Violin1Solo_nonvib_PP_B5.opus
</region>

<region>
hikey=E7
hivel=127
lokey=a#6
loop_end=240604
loop_mode=loop_continuous
loop_start=80298
loop_xfade=50370
lovel=0
lpc=iGlzQaQ8rsGBKmFBiU/KwNmp8z/H5ybAmjUcQBrmmL8yqMA/0UkYQGfaPb8dJ3e+K2xkwd+NiEEmk+HAU2ZoP9K5xj/dEGw/8QsGv0LG77x70IC9CmwnwGe69z6wsqw/
lpc_rms=-47.74
pitch_keycenter=B6
sample=Violin1Solo_nonvib_PP_B6.opus
</region>

<region>
hikey=c#4
hivel=127
lokey=c4
loop_end=256521
loop_mode=loop_continuous
loop_start=79686
loop_xfade=26221
lovel=0
lpc=j68PQj+VwcLo+NNCO/JnwhuyLUF8bO+/dnAQQX4RvcBdZIE+BzTkv3VwDUDpmHJAIXIFwQYMskAzHYVALIRvwU1sr0HaC1jBf+RBvxWX5UCS1bXA6Ipkv/CCjz+QlFo/
lpc_rms=-36.37
pitch_keycenter=c#4
sample=Violin1Solo_nonvib_PP_C#4.opus
</region>

<region>
hikey=c#5
hivel=127
lokey=c5
loop_end=260259
loop_mode=loop_continuous
loop_start=79644
loop_xfade=26208
lovel=0
lpc=W/9VQQYB+sGciABCMM2UwaQ4NEG0y1TBIa1lQWWmOsGPB89AzKANP9uazMAKgK9ASCE9Pf6KQcAVX4dAO2J4wG3lij+4ZeI/TJN3P7rlgMBTgOs/9TZFQBtBiMDwdQxA
lpc_rms=-43.31
pitch_keycenter=c#5
sample=Violin1Solo_nonvib_PP_C#5.opus
</region>

<region>
hikey=c#6
hivel=127
lokey=c6
loop_end=274026
loop_mode=loop_continuous
loop_start=94311
loop_xfade=31034
lovel=0
lpc=IZ8mQWbaY8HgzAxBI2y6wOkRZEBsKw/AhCv5P4+LgL+MUB6/gnUsQChYOMCHMew/3fETv+0TPT/2Dp+/h7gIQKi3D8A+5MA/WS8JPxte3r/ZyDtAmmn2wDRKN0DfrQlA
lpc_rms=-47.57
pitch_keycenter=c#6
sample=Violin1Solo_nonvib_PP_C#6.opus
</region>

<region>
hikey=d#4
hivel=127
lokey=d4
loop_end=279415
loop_mode=loop_continuous
loop_start=83928
loop_xfade=27617
lovel=0
lpc=lSANQRK7r8HRcLpBnnBHwdLoJ0CiviW/HI4dQGZUy7+1mcO+kW1wP2bEp7/xjjVADQd2wMzDVUCG5si+izw+wOlqgEDf/SbAMjfFP3n3VL8QDMw9kkiuvmFnGD+5YPQ8
lpc_rms=-48.07
pitch_keycenter=d#4
sample=Violin1Solo_nonvib_PP_D#4.opus
</region>

<region>
hikey=d#5
hivel=127
lokey=d5
loop_end=261448
loop_mode=loop_continuous
loop_start=101505
loop_xfade=33401
lovel=0
lpc=OjYfQZx/ucE7CaxBMqolwbq41EAK2gjBUMAJQTeRt8BzPIdAc6E+wGgWIT/M7P8+zkYMP6juB7+0E4Q/joItwJRxFkCOiCy/cfiBP/fsNr/XuoS/a+h5P8+fUr3rv7Q9
lpc_rms=-45.53
pitch_keycenter=d#5
sample=Violin1Solo_nonvib_PP_D#5.opus
</region>

<region>
hikey=d#6
hivel=127
lokey=d6
loop_end=283121
loop_mode=loop_continuous
loop_start=91889
loop_xfade=30237
lovel=0
lpc=UKi2QUwt7sHe5X9BxW6/wChdfD5PQYq/DilwP6Zyrj+/BWnAqqW8QFZkqsBu65NAocNYwMiUhkCKj4DAnJc7QCBIiz7aEQPAGa2dQE1kucGAJKVBSJmFwO4XjL8RYU5A
lpc_rms=-41.88
pitch_keycenter=d#6
sample=Violin1Solo_nonvib_PP_D#6.opus
</region>

<region>
hikey=f4
hivel=127
lokey=e4
loop_end=268773
loop_mode=loop_continuous
loop_start=82402
loop_xfade=27115
lovel=0
lpc=6sJcQUaQBcJ6sQlCTI+swUBKPkFqbBvB98jZQPdzWsAyTTVA7C+iv/pEIsCpUbhA+Q3BwB26d0AQIfw/ZxXswLXYz0C04TrAnMqTP/l3Mr6ZIw/AqhAlQFO5db4JlR2+
lpc_rms=-42.89
pitch_keycenter=f4
sample=Violin1Solo_nonvib_PP_F4.opus
</region>

<region>
hikey=f5
hivel=127
lokey=e5
loop_end=263362
loop_mode=loop_continuous
loop_start=96336
loop_xfade=31700
lovel=0
lpc=+C7zQDSlb8Elo1lBOHTgwDUAiUC8mabAfGKiQMUeicByKmNAVKjBv8PgLD8il5K/r3IzQOy0ScAr7FBAqe3QvyxUmr8T5hxAqD4DwK8XH0DEo9O/l0OTvs5ABkBHv12/
lpc_rms=-49.10
pitch_keycenter=f5
sample=Violin1Solo_nonvib_PP_F5.opus
</region>

<region>
hikey=f6
hivel=127
lokey=e6
loop_end=265440
loop_mode=loop_continuous
loop_start=97096
loop_xfade=31950
lovel=0
lpc=70ktQVInecFdjitB9EmxwPjraECTjn/A42oEQE4t3741mH+9akRDP+p2nL67fxG+UgexP7Ie4b8fhBJAxGnVv7o/A0C1WS/BslVFQQy/rMBE06k/A+kqv6IeBkAL48e+
lpc_rms=-46.53
pitch_keycenter=f6
sample=Violin1Solo_nonvib_PP_F6.opus
</region>

<region>
hivel=127
key=g3
loop_end=264877
loop_mode=loop_continuous
loop_start=81506
loop_xfade=26820
lovel=0
lpc=DsCQQY86RsLhMmBC+kb6wcFG30Dx9wDAY8uMQKgOmb9O2rG/CFKXvjtKxr9MlMdAQQ/HwB1Fqj5llKJAoVOrwC/7EEDSQVW/+bYwQB309b9dYQbASq8XQDcZhD6W9a2+
lpc_rms=-42.72
sample=Violin1Solo_nonvib_PP_G3.opus
</region>

<region>
hikey=g4
hivel=127
lokey=f#4
loop_end=276468
loop_mode=loop_continuous
loop_start=84909
loop_xfade=27940
lovel=0
lpc=ph1GQZkdBcKtKhdCwKm6wYg1JEFI2/fAVRMBQX9qvMBGGEBAe5ikPtuBgMCwx6FAqz9QwOkmYD/9WhBAyLirwGWprUBFWE/AhRzQP4g/Oz7IOCDACF1ZQNPqHsDgMY8/
lpc_rms=-42.23
pitch_keycenter=g4
sample=Violin1Solo_nonvib_PP_G4.opus
</region>

<region>
hikey=g5
hivel=127
lokey=f#5
loop_end=266465
loop_mode=loop_continuous
loop_start=97471
loop_xfade=32074
lovel=0
lpc=EjmTQCqD/sDO8clA1aFOwCDEYkBFrm7AVv9hQHzvacBbXGFAS2Ksv4OVDj66HhA/Lxq3vxhlvT8Y1Bq+YatSPxe6xb/v7Mo/+i4NwMfVVUDXvfi/UppCPxxPfL/ut6U/
lpc_rms=-49.08
pitch_keycenter=g5
sample=Violin1Solo_nonvib_PP_G5.opus
</region>

<region>
hikey=g6
hivel=127
lokey=f#6
loop_end=276480
loop_mode=loop_continuous
loop_start=92037
loop_xfade=30286
lovel=0
lpc=sRIzQZT3ZsH3gwVBQE2YwIjqSEBSTkHAidIcQP7f/L/Ljg4/3I4sQL9hUMC0lUxAOGoiwBkhBUDQVvA+P+AcwfBhAEGsBDe/pkeovfrZI74PuAhAsPonwJjMO0At6se/
lpc_rms=-47.73
pitch_keycenter=g6
sample=Violin1Solo_nonvib_PP_G6.opus
</region>
</group>

<group>
group_label=MF
lpc_hicc1=84
lpc_locc1=43

<region>
hikey=a3
hivel=127
lokey=g#3
loop_end=266353
loop_mode=loop_continuous
loop_start=84429
loop_xfade=27782
lovel=0
lpc=PaEJQWTXscG+4dZBRGKhwU15OkGXDubAZ6KmQGSpRsBoMU4/9+KMP6HpGMA5vwtAEW7uv0xUsj829uC+dnzQv/lQZkDQzG/A8YwxQBEca7/gyCO/QpbVPknFqD4AWQE+
lpc_rms=-34.67
pitch_keycenter=a3
sample=Violin1Solo_nonvib_MF_A3.opus
</region>

<region>
hikey=a4
hivel=127
lokey=g#4
loop_end=255358
loop_mode=loop_continuous
loop_start=82000
loop_xfade=26983
lovel=0
lpc=+0lBQVWb7sFlc/NBA8RewTEiEj8Vp+Q/weBrwNRNukCxUjvAQrEZP+T9lMAjzeBAvetGv1D748DB7ghBbmXXwDC08UC455LApzVBwIYzrEDbLIa+BFJrwEMOLkBc5AG/
lpc_rms=-26.96
pitch_keycenter=a4
sample=Violin1Solo_nonvib_MF_A4.opus
</region>

<region>
hikey=a5
hivel=127
lokey=g#5
loop_end=279969
loop_mode=loop_continuous
loop_start=82709
loop_xfade=27216
lovel=0
lpc=EwTCQK9fysCTW89AH20uwLOrOEAVsFy/SuYJQEFKt78aq9s/OGBRP/OOJL5QVpk/YeQTP65HWT/vMY8/CaJOP/Wn6T4VrzE/oNXIPzQB5LxeowG+ROgRQKjt+L+3Rz9A
lpc_rms=-30.28
pitch_keycenter=a5
sample=Violin1Solo_nonvib_MF_A5.opus
</region>

<region>
hikey=a6
hivel=127
lokey=g#6
loop_end=260935
loop_mode=loop_continuous
loop_start=81116
loop_xfade=26692
lovel=0
lpc=kLuHQeXgBMGW07nA49i3QLH917/oyzC+YVODPztLtr/PBw6/P+IWQMpZF0ANJX+/8ytpQLW49MCjISPB3cxeQTdqLr/aMDHAtfFLQGHUHL+uGSQ/n6USQAYmKj63fx7A
lpc_rms=-30.01
pitch_keycenter=a6
sample=Violin1Solo_nonvib_MF_A6.opus
</region>

<region>
hikey=b3
hivel=127
lokey=a#3
loop_end=259390
loop_mode=loop_continuous
loop_start=81452
loop_xfade=26803
lovel=0
lpc=tnPhQbUUocIYws1CpDShwjEuMkLwJr7BVLqZQVRUWcGW25lA2pSpvj/7PcBnBOdAXMsywb3eJ0GmQInAAeonwFDnKEGfwHzBKtlrQUpD5MCN258/7ZWVwKbhBEGaIHDA
lpc_rms=-24.74
pitch_keycenter=b3
sample=Violin1Solo_nonvib_MF_B3.opus
</region>

<region>
hikey=b4
hivel=127
lokey=a#4
loop_end=255618
loop_mode=loop_continuous
loop_start=79553
loop_xfade=26177
lovel=0
lpc=qv5gQWN828FMI7xB/L43wbhO1UBc2Q7BZNQIQYcCvcBaqKxA3NyGwLO1KUD4qTTAel3kP/utp7/diipADPOfv+mapL/2igZAiqX7v9hQ9z9Ci5G/SijGPosLvj56vXM/
lpc_rms=-24.79
pitch_keycenter=b4
sample=Violin1Solo_nonvib_MF_B4.opus
</region>

<region>
hikey=b5
hivel=127
lokey=a#5
loop_end=257553
loop_mode=loop_continuous
loop_start=81294
loop_xfade=26750
lovel=0
lpc=UmErQRipE8EKrOJAQTnjv2TP7T+8S4K+9fYMQIwSrb7CHdY/omg4PrIAyj+Z+Y8+HBePP3Jugz6+OtM/ntwgPs4Ayz+sBe+9DYLuP0dOOz4bkZs/J01Evyj5q0ADtcPA
lpc_rms=-28.54
pitch_keycenter=b5
sample=Violin1Solo_nonvib_MF_B5.opus
</region>

<region>
hikey=E7
hivel=127
lokey=a#6
loop_end=261426
loop_mode=loop_continuous
loop_start=80551
loop_xfade=26506
lovel=0
lpc=g8ygQR4vfcFzkcc/QJdhQJ7hHL+VZPy/YGPxPonQGT+mmwTAjC7uQIPsnMCvZeBAa4KnwY5xSUH7j2pAuw6XwMjC0D+3pAVA1gq0P1kSjr9s4nFAumzGwHQtVkCM2Q3A
lpc_rms=-30.33
pitch_keycenter=B6
sample=Violin1Solo_nonvib_MF_B6.opus
</region>

<region>
hikey=c#4
hivel=127
lokey=c4
loop_end=257959
loop_mode=loop_continuous
loop_start=81875
loop_xfade=26942
lovel=0
lpc=C5PWQU0JmcJq78RC+XCXwnn5EUJQPYLB+l5QQe8rQMHE1xlBYsOVwPi7ecBi3DNBfwU6wbX2+UC0p2DA82W+v+HUBUHqVgnBe6O5QFaGOMBSuBXAYWPJQBMG+MDZp2xA
lpc_rms=-25.48
pitch_keycenter=c#4
sample=Violin1Solo_nonvib_MF_C#4.opus
</region>

<region>
hikey=c#5
hivel=127
lokey=c5
loop_end=270189
loop_mode=loop_continuous
loop_start=49883
loop_xfade=26681
lovel=0
lpc=AlH/QB/YjsHSjJFB0kEpweWXsUADzuXAIYUAQUi0k8DqjQg+rPkLQDU/Q78i44G/P79cPzpcrb0uga8/U0sdwO7iuD8NToq//86WP8471D6Q+QLAmwMxQEbmkL8Hd889
lpc_rms=-27.58
pitch_keycenter=c#5
sample=Violin1Solo_nonvib_MF_C#5.opus
</region>

<region>
hikey=c#6
hivel=127
lokey=c6
loop_end=268137
loop_mode=loop_continuous
loop_start=81694
loop_xfade=26882
lovel=0
lpc=wGCNQZ/BIcG3CYbAlkLRP0awAL/qsIc/jxifvtc+ZD9QiE2+h1IpP8d5Zj6eBoM+8V39PrXQVD5Pm7o+AOXEPgoLET5BSMo+TuowP4zJbL/37F9AFDIOwc2wFcGUZU9B
lpc_rms=-32.32
pitch_keycenter=c#6
sample=Violin1Solo_nonvib_MF_C#6.opus
</region>

<region>
hikey=d#4
hivel=127
lokey=d4
loop_end=257963
loop_mode=loop_continuous
loop_start=81097
loop_xfade=26686
lovel=0
lpc=ez0WQU8kzsFMVANCpIvOwVqgdUHx/grB6eq1QNHRP8B8ERU//W5jPxteH8C8qXlALJNxwPjqQ0BWpOe/RHh3vuSBEkB3mDTAwsUmQGdU3r9vMJE+XhucP2kgpL9yGyE/
lpc_rms=-33.88
pitch_keycenter=d#4
sample=Violin1Solo_nonvib_MF_D#4.opus
</region>

<region>
hikey=d#5
hivel=127
lokey=d5
loop_end=272629
loop_mode=loop_continuous
loop_start=59102
loop_xfade=26854
lovel=0
lpc=SluyQKbHP8FesDRBCc/GwGsheEBb/I3ABgOpQCqHisBJ0DBAFzvCv548YT8GtnW/MYzRPxpL/79zQi5A61gGwPzFzz3NIj4/GytsvSSmJT9N3uW/dczMP3Jym77NseY8
lpc_rms=-31.42
pitch_keycenter=d#5
sample=Violin1Solo_nonvib_MF_D#5.opus
</region>

<region>
hikey=d#6
hivel=127
lokey=d6
loop_end=256102
loop_mode=loop_continuous
loop_start=59127
loop_xfade=26101
lovel=0
lpc=AzjVQVEenME2DfC//8u8QCmRp8BndAFAWgF7vvJZmD901L49mOyTP9JplrxOaJA/5xYtPgf5ST+0sFI/pAQSvmHKAUBO+wXAnJPJQOyFycEmq+9AZAZYQb40EcGhLbNA
lpc_rms=-27.85
pitch_keycenter=d#6
sample=Violin1Solo_nonvib_MF_D#6.opus
</region>

<region>
hikey=f4
hivel=127
lokey=e4
loop_end=254181
loop_mode=loop_continuous
loop_start=82235
loop_xfade=27060
lovel=0
lpc=+JAcQa7XsMF0tq9BfNZKweV1o0Ccn2XAEgL2P9TGOr+5+js/4QqIP3CtjMD0DbxAeCEfwBAc2b82I2tAIxg7wO1zkT90QY4+ZjTXvw4qyj832xW/Eu9ov2rRtD8ihRW+
lpc_rms=-30.52
pitch_keycenter=f4
sample=Violin1Solo_nonvib_MF_F4.opus
</region>

<region>
hikey=f5
hivel=127
lokey=e5
loop_end=265071
loop_mode=loop_continuous
loop_start=81127
loop_xfade=26695
lovel=0
lpc=hBrPQOJMOsGLPyxBypWcwLQ+2D/f2NS/xCINQPitI8BDYCpAzp2Nv3TXJz+AVcy9oPxuPgH+LL9wVyBAtZUDwCV6Vz/yw4a/jkoSQMVbo78Kh1o/Dm6nv3QO6D940NI9
lpc_rms=-31.93
pitch_keycenter=f5
sample=Violin1Solo_nonvib_MF_F5.opus
</region>

<region>
hikey=f6
hivel=127
lokey=e6
loop_end=267982
loop_mode=loop_continuous
loop_start=60751
loop_xfade=30872
lovel=0
lpc=+7qGQXjuUMFMVQw/31txQKS9OcCQqXK/PMmcvu9jjj9l3I6+p52jPx+UiL7K6IU/lpgnPr6r3T58xHo/paQiv26SRkBC14XBkUARQRjOjEAfTZ3AOaI4QI1fCEDQCO4+
lpc_rms=-33.81
pitch_keycenter=f6
sample=Violin1Solo_nonvib_MF_F6.opus
</region>

<region>
hivel=127
key=g3
loop_end=220796
loop_mode=loop_continuous
loop_start=80766
loop_xfade=26576
lovel=0
lpc=8aGBQVjUN8I172FCBFAawitHhEGtlwDBMMfgQLqFe8CgcXG9pePsPxHkasDee8FAh2wBwf7XEEHYN9XA6PR3PgMXtUDdvafA/EyJP8e13T/a6EPAmB4zQB/QT784wd89
lpc_rms=-30.09
sample=Violin1Solo_nonvib_MF_G3.opus
</region>

<region>
hikey=g4
hivel=127
lokey=f#4
loop_end=256575
loop_mode=loop_continuous
loop_start=82488
loop_xfade=27143
lovel=0
lpc=AbXOQA0XgcFcNZFBxMI0wWbVlkA6vTrA2SEIQMXHyb7wJTS8a0WCPh8sG8CI75BA1BZ5wIe9Rj9nvtA/w9wUwPtlWUA9nmbAgSs0P/hLFkCjhtK/s9obvz4jbz8R9Ki9
lpc_rms=-32.58
pitch_keycenter=g4
sample=Violin1Solo_nonvib_MF_G4.opus
</region>

<region>
hikey=g5
hivel=127
lokey=f#5
loop_end=270711
loop_mode=loop_continuous
loop_start=82719
loop_xfade=27219
lovel=0
lpc=LGU3QBS9kcDKi4xAMkUrwCdO4j9Aan2/nZqgP+IWvr/Dj9c/0+/pviexRL6AVEw/FdRAv5XILz+htem9k2YQPzndK78vIoA/g8WHv3wUoz/B0GG/QD6ZP/XrgL/Ys0I/
lpc_rms=-33.28
pitch_keycenter=g5
sample=Violin1Solo_nonvib_MF_G5.opus
</region>

<region>
hikey=g6
hivel=127
lokey=f#6
loop_end=266833
loop_mode=loop_continuous
loop_start=80202
loop_xfade=26391
lovel=0
lpc=0kUnQS2jxMABtQbA3BdIQCgrCsD8mnA/4oIqvzFXOT4+9UU+optjP57zFj1vT/Q+3sgrP8XlCb8JmyVA5nQVwbYHqz9JVsNApB44wNUPhz/Fn5Y/TAkMv2owwj/bUga/
lpc_rms=-36.10
pitch_keycenter=g6
sample=Violin1Solo_nonvib_MF_G6.opus
</region>
</group>

<group>
group_label=FF
lpc_hicc1=127
lpc_locc1=85

<region>
hikey=a3
hivel=127
lokey=g#3
loop_end=262482
loop_mode=loop_continuous
loop_start=82638
loop_xfade=27193
lovel=0
lpc=UA7lQK1RlMESxbhBm8aOwd76FkGwY3HA16urP5X+Kb/IlhQ/kVLqu6x87b8i+jdAt7fdvyCp/b6mNQFA9MM1wJJCPkA8gAfAbx9SPz3Gpr1dzp8/gMsTwJKu0z/Vw3q+
lpc_rms=-23.81
pitch_keycenter=a3
sample=Violin1Solo_nonvib_FF_A3.opus
</region>

<region>
hikey=a4
hivel=127
lokey=g#4
loop_end=273365
loop_mode=loop_continuous
loop_start=82776
loop_xfade=27238
lovel=0
lpc=uHUeQRSzxMH7G9VBWvWCwf/L9kDq+sDAQjdtQND8oL7EiTW/BgSrP5ITQMDzb11Aq/qmvh0te8BqNb5ADsmjwP88bUBswQTAgxA3PzlMXj0RCWq/E0DcP/mSvr/xghg/
lpc_rms=-18.65
pitch_keycenter=a4
sample=Violin1Solo_nonvib_FF_A4.opus
</region>

<region>
hikey=a5
hivel=127
lokey=g#5
loop_end=273802
loop_mode=loop_continuous
loop_start=83143
loop_xfade=27359
lovel=0
lpc=U9WwQDvCqsBPx5lArw0+v9hxdj/SGnE/LTQ+P0KI6D5RbSY/LEBrPyadMz9Ed9E+bQOXP/bLvD4HJoU/7URIP1UQ3T6OVZI/DStzP0ThET6+jYE/12KSP0+obb+7/zRA
lpc_rms=-17.82
pitch_keycenter=a5
sample=Violin1Solo_nonvib_FF_A5.opus
</region>

<region>
hikey=a6
hivel=127
lokey=g#6
loop_end=284968
loop_mode=loop_continuous
loop_start=82747
loop_xfade=27229
lovel=0
lpc=zBzOQfZUCsGd5BPBsNtHQU2xDcDfQE0/AwMTwKWBRT5ru3a/VcJhQD6FsUCs/76/4oXAQMbyJcG1k4jBQcKcQa4hnr/j0drAhcagQKM8jT7yp45AkADzPhosNEAukaXA
lpc_rms=-19.37
pitch_keycenter=a6
sample=Violin1Solo_nonvib_FF_A6.opus
</region>

<region>
hikey=b3
hivel=127
lokey=a#3
loop_end=268787
loop_mode=loop_continuous
loop_start=84705
loop_xfade=27873
lovel=0
lpc=8SWCQThVNcKtV2dC7xgzwn9RpUFsVrDAVhctQBwSS8AjPlpAEzNqv1YBh8C9nsdAh2aHwFEAKL9eyZ9AJ1GnwOeumkDfkWvAdbnhP4M6yD60AXa/ofCQv6Qlyj8wUmS+
lpc_rms=-16.68
pitch_keycenter=b3
sample=Violin1Solo_nonvib_FF_B3.opus
</region>

<region>
hikey=b4
hivel=127
lokey=a#4
loop_end=277048
loop_mode=loop_continuous
loop_start=83074
loop_xfade=27336
lovel=0
lpc=vFEFQYPgiMHHn4RBRvMGwUxyBUCL9OO/LP1AQHrce8CrAH1AmhTXv8PpkL82l+Y/VIApv2sMw7/vH0ZAtTUjwI27Xj+7Lds/YQcQwAEadz9fjqC9u/NAP4MNwr+lRcI/
lpc_rms=-17.65
pitch_keycenter=b4
sample=Violin1Solo_nonvib_FF_B4.opus
</region>

<region>
hikey=b5
hivel=127
lokey=a#5
loop_end=278529
loop_mode=loop_continuous
loop_start=83143
loop_xfade=27359
lovel=0
lpc=idAGQTy1jcAOfMFARNjhvq7zb0BUyYg+m0NAQGyY9D8r/IY/MNFSQOaWYD9qpilAHkqkPxisIkCR9pA/OCQ+QM5vrz9jMM4/R3BPQL9CBz6f7GpAm/pGPQ43m0AFyAPA
lpc_rms=-18.44
pitch_keycenter=b5
sample=Violin1Solo_nonvib_FF_B5.opus
</region>

<region>
hikey=E7
hivel=127
lokey=a#6
loop_end=265795
loop_mode=loop_continuous
loop_start=80506
loop_xfade=26491
lovel=0
lpc=ttvrQchOkcFWDBLAUUcHQWC39j+U1jvA5nqxPxNOij6C7YLAGZhRQXtF08CwLQNBJvrqwSg/YEGpxBZBGh8Dwc0wDr/SfGZAe2bjP/6C075K2OdApggowcYGlUDf2mm/
lpc_rms=-21.05
pitch_keycenter=B6
sample=Violin1Solo_nonvib_FF_B6.opus
</region>

<region>
hikey=c#4
hivel=127
lokey=c4
loop_end=266944
loop_mode=loop_continuous
loop_start=83000
loop_xfade=27312
lovel=0
lpc=W3qVQVtGTsL71oBCVslCwnDCvEFcASHB+9HZQBlCxsDdB7BAgoowwDbMPsBpRvtA9Zb7wDioTEANsIhALNYVwd5/GUEFFbXAEGJFQEhqlb9KdcI8iiaOvTQk078ycKk/
lpc_rms=-14.99
pitch_keycenter=c#4
sample=Violin1Solo_nonvib_FF_C#4.opus
</region>

<region>
hikey=c#5
hivel=127
lokey=c5
loop_end=275302
loop_mode=loop_continuous
loop_start=82218
loop_xfade=27054
lovel=0
lpc=D5a5QLrBPsH01DZBHQ7LwLxUKUASTQnA8a0LQA0mCcAGyvQ/yASav2Le8T6+l0++DYSIPzPrxr8ThxhAqQU/wO6fHkCjiau/fgsiP+o1T78NXpw/h+uqvo2ShL6CIcQ+
lpc_rms=-20.41
pitch_keycenter=c#5
sample=Violin1Solo_nonvib_FF_C#5.opus
</region>

<region>
hikey=c#6
hivel=127
lokey=c6
loop_end=269484
loop_mode=loop_continuous
loop_start=98575
loop_xfade=32437
lovel=0
lpc=vKbOQc+gMsF2+ejA2i1sQOzhS7/ml74/LYGvPj+TlT9/nJc+MkOZP9SdAD9KKWg/2ygDPzCqdT+N8jA/S8cbP6PPlj/Iusu8JPgKQBvI17+0jKRAqa8wwcmqhsEJzpNB
lpc_rms=-19.87
pitch_keycenter=c#6
sample=Violin1Solo_nonvib_FF_C#6.opus
</region>

<region>
hikey=d#4
hivel=127
lokey=d4
loop_end=263370
loop_mode=loop_continuous
loop_start=82585
loop_xfade=27175
lovel=0
lpc=aUT0QKWLnME3nbBBZQZVweS4m0DuWUrAquJyQFZ6MMCMXbc/zxC8vldpdT1hgRy//hcBQL3ha8D665tAajWgwN+baECxOq+/lF8+P1dSmL+CWE0/58U4Pe1+BTxLGyy+
lpc_rms=-21.71
pitch_keycenter=d#4
sample=Violin1Solo_nonvib_FF_D#4.opus
</region>

<region>
hikey=d#5
hivel=127
lokey=d5
loop_end=268330
loop_mode=loop_continuous
loop_start=80682
loop_xfade=26549
lovel=0
lpc=cnqTQPRgFsHZlgxBJZeewHc8O0DCYi3AKZsoQKwN8b8+EcE/GKNavybIDL6SUyE/qAnHPRlkX79DLvM/LpEawB0C5T/RSPy+Ttr6PgrIm7+I884/BlRUv55kxL0ZH+8+
lpc_rms=-21.47
pitch_keycenter=d#5
sample=Violin1Solo_nonvib_FF_D#5.opus
</region>

<region>
hikey=d#6
hivel=127
lokey=d6
loop_end=267665
loop_mode=loop_continuous
loop_start=82480
loop_xfade=27140
lovel=0
lpc=jMmLQclqDcFrkJ3AEC/dQD7g275tIa4/56/5vYSLgT87Ola93aKrP7vubL7TlWo/R3q9Pu2VLz/uGws/GcX2Pe9QwD9SFJK/JlJ8QFiKd8HXgII/2AMvQcwzwMBcujG/
lpc_rms=-20.44
pitch_keycenter=d#6
sample=Violin1Solo_nonvib_FF_D#6.opus
</region>

<region>
hikey=f4
hivel=127
lokey=e4
loop_end=273819
loop_mode=loop_continuous
loop_start=83107
loop_xfade=27347
lovel=0
lpc=6QQNQeuMrcFZpLtB15hVwdpXjkBtoYzAuC64QMQrjMBI49E/02lPP8BrA8COyLU/QaqmPoPop79UcS5AoHR0wCjnOkD9V2K/JomRvEOHN79D/JE/6UuAv/mlTj8KuQS+
lpc_rms=-19.79
pitch_keycenter=f4
sample=Violin1Solo_nonvib_FF_F4.opus
</region>

<region>
hikey=f5
hivel=127
lokey=e5
loop_end=266137
loop_mode=loop_continuous
loop_start=80996
loop_xfade=26652
lovel=0
lpc=BHKaQJhQE8EwbxZB8kaswFByVkD94iHAc5e3P2Nz+L6tmU8/okZbv1CLlT5jM3w+YHHnPtpGqb+R3RxAgl8UwMRv5T/joC2/RzvoPgG2Qr3R+Yg/Ze3Tv49J6D+i0dq+
lpc_rms=-22.03
pitch_keycenter=f5
sample=Violin1Solo_nonvib_FF_F5.opus
</region>

<region>
hikey=f6
hivel=127
lokey=e6
loop_end=277215
loop_mode=loop_continuous
loop_start=82893
loop_xfade=27277
lovel=0
lpc=8eCRQVWJKsGkJAPAynoBQQESPMDSlY2/ANLuvn/Vmj9lyA8/3NqKP+epUT9xYCs/P9ijP4KDkT7exdM/tjPkvrZObUAd/ojBzpG/QELX/EBnOAXBjlcmQDBgIkAjc7U/
lpc_rms=-22.21
pitch_keycenter=f6
sample=Violin1Solo_nonvib_FF_F6.opus
</region>

<region>
hivel=127
key=g3
loop_end=226652
loop_mode=loop_continuous
loop_start=82908
loop_xfade=27281
lovel=0
lpc=v6QoQZTr5sE7dhFCyGXaweCIV0Fj9M/AHzqgQK7ugsAXVDZAo/iYvqEulsCGPwVBgWrmwNq6J0ClwdM/ReWBwK2Vs0B1d7HA4p+CQMnYHsCoQRZAe3ggwBHysz/RRRm+
lpc_rms=-19.72
sample=Violin1Solo_nonvib_FF_G3.opus
</region>

<region>
hikey=g4
hivel=127
lokey=f#4
loop_end=270792
loop_mode=loop_continuous
loop_start=82227
loop_xfade=27058
lovel=0
lpc=jqzdQNY5i8Ew+ZhBFRwrwfmtRUCfSjvAzHKTQJYAYcA0XPI/AfzOvgWA3r/Xhj1ApWrKv/dSsr9Jj05Aw8w3wKrn3z+m2IO/TfARPw6OPr4m+iA+kkPHvvWEzj73ACI7
lpc_rms=-21.51
pitch_keycenter=g4
sample=Violin1Solo_nonvib_FF_G4.opus
</region>

<region>
hikey=g5
hivel=127
lokey=f#5
loop_end=269215
loop_mode=loop_continuous
loop_start=80844
loop_xfade=26603
lovel=0
lpc=zrkyQIZXQMBRfipAjMmMv1+hgD/9mUG/XSHYPtWC276BcyY/c9d5PpQo4L2joaA+Bn7iPsK79T22jba9e3BKPWsOBD05c64+muA6PqiaBD6ruhg+k3VWPza3pL1WVEy9
lpc_rms=-21.97
pitch_keycenter=g5
sample=Violin1Solo_nonvib_FF_G5.opus
</region>

<region>
hikey=g6
hivel=127
lokey=f#6
loop_end=282936
loop_mode=loop_continuous
loop_start=84129
loop_xfade=27683
lovel=0
lpc=PI2MQVmlqcDDu4LAJKLHQA4xk780/qa/7nd2P9e3AT+9Fpi/zj8LQJvSXz9V1ZE/EyX8P8Hogr4uzZFAMCFgwQmg3L+90RtBMMN6wFdz6b64nn9AkQhUPlg/MT+STwtA
lpc_rms=-21.90
pitch_keycenter=g6
sample=Violin1Solo_nonvib_FF_G6.opus
</region>
</group>